<?xml version="1.0" encoding="iso-8859-1"?>
<!-- Generator: Adobe Illustrator 19.0.0, SVG Export Plug-In . SVG Version: 6.00 Build 0)  -->
<svg version="1.1" id="Capa_1" xmlns="http://www.w3.org/2000/svg" xmlns:xlink="http://www.w3.org/1999/xlink" x="0px" y="0px"
	 viewBox="0 0 468.049 468.049" style="enable-background:new 0 0 468.049 468.049;" xml:space="preserve">
<g>
	
		<linearGradient id="SVGID_1_" gradientUnits="userSpaceOnUse" x1="-12.5946" y1="582.4767" x2="-12.5946" y2="494.3137" gradientTransform="matrix(5.2245 0 0 -5.2245 300.2491 3047.8367)">
		<stop  offset="0" style="stop-color:#00EFD1"/>
		<stop  offset="1" style="stop-color:#00ACEA"/>
	</linearGradient>
	<path style="fill:url(#SVGID_1_);" d="M233.927,88.457c-101.878,0-184.424,82.547-184.424,184.424
		c0,42.841,14.629,82.024,39.184,113.371l-31.347,39.706c-5.224,6.792-4.18,16.718,2.612,21.943c3.135,2.09,6.269,3.135,9.927,3.135
		c4.702,0,9.404-2.09,12.539-5.747l28.212-35.527c32.914,29.78,76.278,48.065,123.82,48.065s91.429-18.286,123.82-48.065
		l28.212,35.527c3.135,3.657,7.837,5.747,12.539,5.747c3.657,0,6.792-1.045,9.927-3.135c6.792-5.224,7.837-15.151,2.612-21.943
		l-31.347-39.706c24.555-31.347,39.184-70.531,39.184-113.371C418.351,171.004,335.804,88.457,233.927,88.457z M233.927,425.959
		c-84.637,0-153.078-68.441-153.078-153.078s68.441-153.078,153.078-153.078s153.078,68.441,153.078,153.078
		C387.004,356.996,318.563,425.959,233.927,425.959z"/>
	
		<linearGradient id="SVGID_2_" gradientUnits="userSpaceOnUse" x1="-41.1321" y1="582.4767" x2="-41.1321" y2="494.3137" gradientTransform="matrix(5.2245 0 0 -5.2245 300.2491 3047.8367)">
		<stop  offset="0" style="stop-color:#00EFD1"/>
		<stop  offset="1" style="stop-color:#00ACEA"/>
	</linearGradient>
	<path style="fill:url(#SVGID_2_);" d="M166.008,60.768c6.269-6.269,6.269-16.196,0-21.943c-38.139-38.139-99.788-38.139-137.404,0
		c-38.139,38.139-38.139,99.788,0,137.404c3.135,3.135,6.792,4.702,10.971,4.702s8.359-1.567,10.971-4.702L166.008,60.768z
		 M50.547,60.768c13.061-13.061,29.78-19.331,46.498-19.331c12.016,0,23.51,3.135,34.482,9.404L40.62,141.747
		C24.947,116.147,28.604,82.71,50.547,60.768z"/>
	
		<linearGradient id="SVGID_3_" gradientUnits="userSpaceOnUse" x1="15.8617" y1="582.4767" x2="15.8617" y2="494.3137" gradientTransform="matrix(5.2245 0 0 -5.2245 300.2491 3047.8367)">
		<stop  offset="0" style="stop-color:#00EFD1"/>
		<stop  offset="1" style="stop-color:#00ACEA"/>
	</linearGradient>
	<path style="fill:url(#SVGID_3_);" d="M440.294,38.825c-38.139-38.139-99.788-38.139-137.404,0c-6.269,6.269-6.269,16.196,0,21.943
		l114.939,115.461c3.135,3.135,6.792,4.702,10.971,4.702s8.359-1.567,10.971-4.702C477.388,137.568,477.388,75.919,440.294,38.825z
		 M427.233,141.225l-90.384-90.384c10.449-6.269,21.943-9.404,34.482-9.404c17.763,0,33.959,6.792,46.498,19.331
		C439.249,82.188,442.384,115.625,427.233,141.225z"/>
	
		<linearGradient id="SVGID_4_" gradientUnits="userSpaceOnUse" x1="-11.6446" y1="582.4767" x2="-11.6446" y2="494.3137" gradientTransform="matrix(5.2245 0 0 -5.2245 300.2491 3047.8367)">
		<stop  offset="0" style="stop-color:#00EFD1"/>
		<stop  offset="1" style="stop-color:#00ACEA"/>
	</linearGradient>
	<path style="fill:url(#SVGID_4_);" d="M291.918,203.919l-76.278,75.755l-29.257-29.257c-6.269-6.269-16.196-6.269-21.943,0
		c-6.269,6.269-6.269,16.196,0,21.943l40.229,40.229c3.135,3.135,7.314,4.702,10.971,4.702c4.18,0,7.837-1.567,10.971-4.702
		l87.771-86.204c6.269-6.269,6.269-16.196,0-21.943C308.114,198.172,298.188,198.172,291.918,203.919z"/>
</g>
<g>
</g>
<g>
</g>
<g>
</g>
<g>
</g>
<g>
</g>
<g>
</g>
<g>
</g>
<g>
</g>
<g>
</g>
<g>
</g>
<g>
</g>
<g>
</g>
<g>
</g>
<g>
</g>
<g>
</g>
</svg>
