<svg height="498pt" viewBox="-67 0 498 498.00065" width="498pt" xmlns="http://www.w3.org/2000/svg" xmlns:xlink="http://www.w3.org/1999/xlink"><linearGradient id="a"><stop offset="0" stop-color="#00efd1"/><stop offset="1" stop-color="#00acea"/></linearGradient><linearGradient id="b" gradientUnits="userSpaceOnUse" x1="181.666973" x2="181.666973" xlink:href="#a" y1="5.000648" y2="491.037648"/><linearGradient id="c" gradientUnits="userSpaceOnUse" x1="181.667973" x2="181.667973" xlink:href="#a" y1="5.000648" y2="491.037648"/><path d="m181.667969 57.273438c-68.707031 0-124.402344 55.695312-124.402344 124.398437s55.695313 124.398437 124.402344 124.398437c68.703125 0 124.398437-55.695312 124.398437-124.398437-.074218-68.671875-55.726562-124.324219-124.398437-124.398437zm0 228.792968c-57.660157 0-104.402344-46.742187-104.402344-104.402344 0-57.65625 46.742187-104.398437 104.402344-104.398437 57.65625 0 104.398437 46.742187 104.398437 104.398437-.0625 57.632813-46.765625 104.335938-104.398437 104.402344zm0 0" fill="url(#b)"/><path d="m337.75 139.867188 2.394531-43.484376c.21875-3.964843-1.929687-7.683593-5.476562-9.472656l-38.695313-19.546875-19.546875-38.703125c-1.796875-3.539062-5.511719-5.6875-9.476562-5.476562l-43.480469 2.402344-36.300781-23.933594c-3.339844-2.203125-7.667969-2.203125-11.007813 0l-36.292968 23.933594-43.480469-2.402344c-3.964844-.210938-7.679688 1.9375-9.476563 5.476562l-19.546875 38.703125-38.695312 19.546875c-3.546875 1.789063-5.695313 5.507813-5.476563 9.472656l2.394532 43.484376-23.933594 36.296874c-2.203125 3.339844-2.203125 7.671876 0 11.011719l23.933594 36.300781-2.394532 43.480469c-.21875 3.964844 1.933594 7.679688 5.476563 9.472657l38.699219 19.546874 19.546874 38.695313c1.707032 3.527344 5.363282 5.6875 9.277344 5.476563l1.484375-.09375v147.945312c.089844 3.730469 2.203125 7.117188 5.511719 8.835938 3.3125 1.722656 7.296875 1.503906 10.402344-.5625l68.035156-46.183594 68.011719 46.183594c1.660156 1.125 3.617187 1.726562 5.625 1.726562 1.695312 0 3.367187-.398438 4.882812-1.164062 3.320313-1.710938 5.441407-5.101563 5.523438-8.835938v-147.945312l1.480469.09375c3.941406.214843 7.628906-1.9375 9.375-5.476563l19.5-38.695313 38.671874-19.546874c3.542969-1.792969 5.6875-5.511719 5.464844-9.476563l-2.402344-43.480469 23.929688-36.300781c2.203125-3.339844 2.203125-7.671875 0-11.011719zm-92.082031 329.25-58.183594-39.386719c-3.5-2.304688-8.035156-2.304688-11.535156 0l-58.28125 39.386719v-130.164063l22-1.199219 36.398437 23.933594c3.367188 2.199219 7.71875 2.199219 11.082032 0l36.507812-23.933594 22.015625 1.199219zm73.566406-253.898438c-1.179687 1.789062-1.753906 3.914062-1.632813 6.054688l2.214844 40.25-35.800781 18.082031c-1.90625.964843-3.453125 2.511719-4.417969 4.417969l-18.078125 35.792968-40.253906-2.214844c-2.140625-.117187-4.261719.457032-6.050781 1.636719l-33.546875 22.121094-33.550781-22.121094c-1.632813-1.078125-3.542969-1.652343-5.5-1.652343-.183594 0-.367188 0-.550782.015624l-40.25 2.214844-18.082031-35.792968c-.964844-1.90625-2.511719-3.453126-4.417969-4.417969l-35.792968-18.082031 2.214843-40.25c.117188-2.140626-.457031-4.265626-1.636719-6.054688l-22.125-33.550781 22.121094-33.550781c1.179688-1.789063 1.753906-3.910157 1.636719-6.054688l-2.214844-40.25 35.792969-18.082031c1.90625-.960938 3.453125-2.511719 4.417969-4.417969l18.082031-35.792969 40.253906 2.214844c2.140625.117187 4.261719-.453125 6.050782-1.632813l33.550781-22.121093 33.550781 22.121093c1.789062 1.179688 3.910156 1.753907 6.050781 1.636719l40.253907-2.214843 18.082031 35.792968c.960937 1.90625 2.507812 3.453125 4.414062 4.414063l35.800781 18.082031-2.214843 40.253906c-.117188 2.140625.453125 4.261719 1.636719 6.054688l22.121093 33.546875zm0 0" fill="url(#c)"/><path d="m235.761719 128h-14.960938c-5.5625.023438-10.078125 4.511719-10.132812 10.074219v20.925781h-58v-20.925781c-.058594-5.5625-4.570313-10.050781-10.132813-10.074219h-14.960937c-12.28125.039062-22.621094 9.203125-24.132813 21.394531-13.273437.351563-23.832031 11.238281-23.773437 24.515625v13.140625c-.046875 13.171875 10.417969 23.976563 23.582031 24.351563.367188 13.160156 11.15625 23.632812 24.324219 23.597656h14.960937c2.636719.066406 5.191406-.925781 7.09375-2.753906s2.996094-4.34375 3.039063-6.980469v-20.265625h58v20.265625c.039062 2.636719 1.132812 5.152344 3.035156 6.980469 1.90625 1.828125 4.457031 2.820312 7.097656 2.753906h14.960938c13.167969.035156 23.960937-10.441406 24.320312-23.605469 13.164063-.375 23.628907-11.171875 23.585938-24.34375v-13.140625c.054687-13.273437-10.503907-24.15625-23.773438-24.507812-1.511719-12.191406-11.851562-21.359375-24.132812-21.402344zm-136.09375 59.050781v-13.140625c0-2.210937 1-4.046875 3-4.414062v21.972656c-2-.367188-3-2.203125-3-4.417969zm33 27.949219h-5.09375c-2.476563 0-4.90625-1.75-4.90625-4.230469v-58.203125c.191406-2.570312 2.328125-4.558594 4.90625-4.566406h5.09375zm20-30v-6h58v6zm88 25.773438c0 2.476562-2.429688 4.226562-4.90625 4.226562h-5.09375v-67h5.09375c2.574219.007812 4.714843 1.996094 4.90625 4.566406zm23-36.863282v13.140625c0 2.214844-1 4.046875-3 4.417969v-21.96875c2 .367188 3 2.199219 3 4.410156zm0 0" fill="url(#b)"/></svg>