<?xml version="1.0" encoding="utf-8"?>
<!-- Generator: Adobe Illustrator 19.0.0, SVG Export Plug-In . SVG Version: 6.00 Build 0)  -->
<svg xmlns="http://www.w3.org/2000/svg" xmlns:xlink="http://www.w3.org/1999/xlink" version="1.1" id="Layer_1" x="0px" y="0px" viewBox="0 2 98 98" style="enable-background:new 0 2 98 98;" xml:space="preserve" width="512" height="512">
<style type="text/css">
	.st0{fill:url(#SVGID_1_);}
	.st1{fill:url(#SVGID_2_);}
	.st2{fill:url(#SVGID_3_);}
	.st3{fill:url(#SVGID_4_);}
	.st4{fill:url(#SVGID_5_);}
</style>
<g>
	
		<linearGradient id="SVGID_1_" gradientUnits="userSpaceOnUse" x1="53.5637" y1="93.3333" x2="53.5637" y2="4.7488" gradientTransform="matrix(1 0 0 -1 0 104)">
		<stop offset="0" style="stop-color:#00EFD1"/>
		<stop offset="1" style="stop-color:#00ACEA"/>
	</linearGradient>
	<path class="st0" d="M90.8,13.2c-0.3-1-1.1-1.8-2.1-2.1c-14.5-4-27.5,3.9-32.8,9.3l-0.1,0.1c-0.7,0.8-9.5,9.6-14.5,14.6l-12.9-4.2   c-1.1-0.4-2.3-0.1-3.1,0.7l-9.2,9.2c-0.6,0.6-0.9,1.3-0.9,2.1s0.3,1.6,0.9,2.1l9,9l0,0l0,0l0,0l-5,8.4c-0.7,1.2-0.5,2.7,0.5,3.7   l15.2,15.2c1,1,2.5,1.2,3.7,0.5l8.4-5l9,9c0.6,0.6,1.3,0.9,2.1,0.9s1.6-0.3,2.1-0.9l9.2-9.2c0.8-0.8,1.1-2,0.7-3l-4.1-13L81.5,46   C86.9,40.7,94.9,27.8,90.8,13.2z M38.4,75.5L26.5,63.6l3-5.1l14,13.9L38.4,75.5z M61.4,57.7c-0.8,0.8-1.1,2-0.7,3l4.1,13L59,79.5   l-7.2-7.2l0,0L29.4,49.8l0,0l-6.9-6.9l5.8-5.8l12.9,4.2c1.1,0.4,2.3,0.1,3.1-0.7c9.3-9.3,15-15,15.9-16c4.2-4.2,14.1-10.4,25.2-8.1   c2.3,11.2-3.9,21.1-8.1,25.3L61.4,57.7z"/>
	
		<linearGradient id="SVGID_2_" gradientUnits="userSpaceOnUse" x1="16.5065" y1="93.3333" x2="16.5065" y2="4.7488" gradientTransform="matrix(1 0 0 -1 0 104)">
		<stop offset="0" style="stop-color:#00EFD1"/>
		<stop offset="1" style="stop-color:#00ACEA"/>
	</linearGradient>
	<path class="st1" d="M24.6,77.4c-1.2-1.2-3.1-1.2-4.2,0L8.5,89.2c-1.2,1.2-1.2,3.1,0,4.2c0.6,0.6,1.4,0.9,2.1,0.9s1.5-0.3,2.1-0.9   l11.8-11.8C25.7,80.5,25.7,78.6,24.6,77.4z"/>
	
		<linearGradient id="SVGID_3_" gradientUnits="userSpaceOnUse" x1="26.8" y1="93.3333" x2="26.8" y2="4.7488" gradientTransform="matrix(1 0 0 -1 0 104)">
		<stop offset="0" style="stop-color:#00EFD1"/>
		<stop offset="1" style="stop-color:#00ACEA"/>
	</linearGradient>
	<path class="st2" d="M27.7,84.8l-6,6c-1.2,1.2-1.2,3.1,0,4.2c0.6,0.6,1.4,0.9,2.1,0.9s1.5-0.3,2.1-0.9l6-6c1.2-1.2,1.2-3.1,0-4.2   C30.8,83.7,28.9,83.7,27.7,84.8z"/>
	
		<linearGradient id="SVGID_4_" gradientUnits="userSpaceOnUse" x1="12.1" y1="93.3333" x2="12.1" y2="4.7488" gradientTransform="matrix(1 0 0 -1 0 104)">
		<stop offset="0" style="stop-color:#00EFD1"/>
		<stop offset="1" style="stop-color:#00ACEA"/>
	</linearGradient>
	<path class="st3" d="M11.2,80.3l6-6c1.2-1.2,1.2-3.1,0-4.2c-1.2-1.2-3.1-1.2-4.2,0l-6,6c-1.2,1.2-1.2,3.1,0,4.2   c0.6,0.6,1.4,0.9,2.1,0.9S10.6,80.9,11.2,80.3z"/>
	
		<linearGradient id="SVGID_5_" gradientUnits="userSpaceOnUse" x1="69.2" y1="93.3333" x2="69.2" y2="4.7488" gradientTransform="matrix(1 0 0 -1 0 104)">
		<stop offset="0" style="stop-color:#00EFD1"/>
		<stop offset="1" style="stop-color:#00ACEA"/>
	</linearGradient>
	<path class="st4" d="M69.2,25.1c-4.2,0-7.7,3.5-7.7,7.7s3.5,7.7,7.7,7.7s7.7-3.5,7.7-7.7C76.9,28.6,73.4,25.1,69.2,25.1z    M69.2,34.5c-0.9,0-1.7-0.8-1.7-1.7c0-0.9,0.8-1.7,1.7-1.7s1.7,0.8,1.7,1.7C70.9,33.8,70.1,34.5,69.2,34.5z"/>
</g>
</svg>
