<svg height="470pt" viewBox="-1 0 470 470.93504" width="470pt" xmlns="http://www.w3.org/2000/svg" xmlns:xlink="http://www.w3.org/1999/xlink"><linearGradient id="a" gradientUnits="userSpaceOnUse" x1="234.46752" x2="234.46752" y1="-8.531941" y2="473.671059"><stop offset="0" stop-color="#00efd1"/><stop offset="1" stop-color="#00acea"/></linearGradient><path d="m463.457031 258.816406-106.988281-61.597656v-122.734375c0-3.578125-1.910156-6.882813-5.011719-8.667969l-112-64.480468c-3.089843-1.78125-6.890625-1.78125-9.980469 0l-112 64.480468c-3.097656 1.785156-5.007812 5.089844-5.007812 8.667969v122.734375l-106.992188 61.597656c-3.097656 1.785156-5.007812 5.089844-5.007812 8.667969v128.96875c0 3.574219 1.910156 6.878906 5.007812 8.664063l112 64.484374c3.089844 1.777344 6.890626 1.777344 9.980469 0l107.011719-61.609374 107.007812 61.609374c3.089844 1.777344 6.890626 1.777344 9.980469 0l112-64.484374c3.101563-1.785157 5.011719-5.089844 5.011719-8.664063v-128.96875c0-3.578125-1.910156-6.882813-5.011719-8.667969zm-228.988281-237.277344 102 58.730469v116.949219l-102 58.726562-102-58.726562v-116.949219zm-112 427.855469-102-58.726562v-117.398438l101.605469-58.5 102.394531 58.949219v116.949219zm326-58.726562-102 58.726562-102-58.726562v-116.949219l102.390625-58.949219 101.609375 58.5zm0 0" fill="url(#a)"/></svg>